<svg xmlns="http://www.w3.org/2000/svg" viewBox="0 0 120 120" fill="none">
  <!-- Dark circular background -->
  <circle cx="60" cy="60" r="56" fill="#0D0D0D"/>

  <!-- Outer ring with gradient -->
  <circle cx="60" cy="60" r="52" stroke="url(#gradient)" stroke-width="2"/>

  <!-- Camera lens / aperture shape -->
  <circle cx="60" cy="60" r="36" stroke="#FFFFFF" stroke-width="2.5" fill="none"/>
  <circle cx="60" cy="60" r="28" stroke="#FFFFFF" stroke-width="1.5" fill="none" opacity="0.6"/>

  <!-- Aperture blades (camera element) -->
  <path d="M60 32 L66 44 L60 56 L54 44 Z" fill="#FFD700" opacity="0.9"/>
  <path d="M78 42 L72 54 L60 54 L66 42 Z" fill="#FFD700" opacity="0.7"/>
  <path d="M78 60 L66 60 L60 48 L72 48 Z" fill="#FFD700" opacity="0.5"/>
  <path d="M66 76 L60 64 L54 76 L60 88 Z" fill="#FFD700" opacity="0.9"/>
  <path d="M48 76 L42 64 L54 64 L60 76 Z" fill="#FFD700" opacity="0.7"/>
  <path d="M42 60 L54 60 L60 72 L48 72 Z" fill="#FFD700" opacity="0.5"/>

  <!-- Rule of thirds grid (coaching/guide element) -->
  <!-- Vertical lines -->
  <line x1="36" y1="24" x2="36" y2="96" stroke="#FFFFFF" stroke-width="1" opacity="0.4"/>
  <line x1="84" y1="24" x2="84" y2="96" stroke="#FFFFFF" stroke-width="1" opacity="0.4"/>
  <!-- Horizontal lines -->
  <line x1="24" y1="36" x2="96" y2="36" stroke="#FFFFFF" stroke-width="1" opacity="0.4"/>
  <line x1="24" y1="84" x2="96" y2="84" stroke="#FFFFFF" stroke-width="1" opacity="0.4"/>

  <!-- Center focus point (crosshair) -->
  <circle cx="60" cy="60" r="4" fill="#00D26A"/>
  <line x1="60" y1="52" x2="60" y2="56" stroke="#00D26A" stroke-width="1.5"/>
  <line x1="60" y1="64" x2="60" y2="68" stroke="#00D26A" stroke-width="1.5"/>
  <line x1="52" y1="60" x2="56" y2="60" stroke="#00D26A" stroke-width="1.5"/>
  <line x1="64" y1="60" x2="68" y2="60" stroke="#00D26A" stroke-width="1.5"/>

  <!-- Gradients definition -->
  <defs>
    <linearGradient id="gradient" x1="0%" y1="0%" x2="100%" y2="100%">
      <stop offset="0%" stop-color="#FFD700"/>
      <stop offset="50%" stop-color="#FFA500"/>
      <stop offset="100%" stop-color="#00D26A"/>
    </linearGradient>
  </defs>
</svg>